<?xml version="1.0" encoding="UTF-8" standalone="no"?>
<!-- Created with Inkscape (http://www.inkscape.org/) -->

<svg
   version="1.1"
   id="svg9"
   xml:space="preserve"
   width="682.66669"
   height="682.66669"
   viewBox="0 0 682.66669 682.66669"
   xmlns="http://www.w3.org/2000/svg"
   xmlns:svg="http://www.w3.org/2000/svg"><defs
     id="defs13"><clipPath
       clipPathUnits="userSpaceOnUse"
       id="clipPath35"><path
         d="M 0,512 H 512 V 0 H 0 Z"
         id="path33" /></clipPath></defs><g
     id="g15"
     transform="matrix(1.3333333,0,0,-1.3333333,0,682.66667)"><g
       id="g17"
       transform="translate(206.5552,313.3535)"><path
         d="M 0,0 H 238"
         style="fill:none;stroke:#000000;stroke-width:15;stroke-linecap:round;stroke-linejoin:round;stroke-miterlimit:10;stroke-dasharray:none;stroke-opacity:1"
         id="path19" /></g><g
       id="g21"
       transform="translate(206.5552,256.02)"><path
         d="M 0,0 H 238"
         style="fill:none;stroke:#000000;stroke-width:15;stroke-linecap:round;stroke-linejoin:round;stroke-miterlimit:10;stroke-dasharray:none;stroke-opacity:1"
         id="path23" /></g><g
       id="g25"
       transform="translate(206.5552,198.687)"><path
         d="M 0,0 H 238"
         style="fill:none;stroke:#000000;stroke-width:15;stroke-linecap:round;stroke-linejoin:round;stroke-miterlimit:10;stroke-dasharray:none;stroke-opacity:1"
         id="path27" /></g><g
       id="g29"><g
         id="g31"
         clip-path="url(#clipPath35)"><g
           id="g37"
           transform="translate(182.7324,378.9453)"><path
             d="m 0,0 h 285.646 c 19.949,0 36.122,-16.172 36.122,-36.122 v -179.617 c 0,-19.792 -15.921,-35.858 -35.654,-36.11 v -83.92 c 0,-5.263 -6.643,-7.57 -9.905,-3.44 l -64.655,81.854 c -2.742,3.47 -6.921,5.495 -11.343,5.495 H 0 c -19.95,0 -36.122,16.172 -36.122,36.121 V -36.122 C -36.122,-16.172 -19.95,0 0,0 Z"
             style="fill:none;stroke:#000000;stroke-width:15;stroke-linecap:round;stroke-linejoin:round;stroke-miterlimit:10;stroke-dasharray:none;stroke-opacity:1"
             id="path39" /></g><g
           id="g41"
           transform="translate(319.0522,414.0078)"><path
             d="m 0,0 v 28.932 c 0,17.366 -14.078,31.444 -31.445,31.444 h -248.662 c -17.367,0 -31.445,-14.078 -31.445,-31.444 V -127.43 c 0,-17.23 13.859,-31.216 31.037,-31.434 v -73.055 c 0,-4.582 5.783,-6.591 8.623,-2.995 l 56.284,71.256 c 2.016,2.553 4.927,4.207 8.104,4.658"
             style="fill:none;stroke:#000000;stroke-width:15;stroke-linecap:round;stroke-linejoin:round;stroke-miterlimit:10;stroke-dasharray:none;stroke-opacity:1"
             id="path43" /></g></g></g></g></svg>
