<svg fill="none" height="512" viewBox="0 0 32 32" width="512" xmlns="http://www.w3.org/2000/svg"><g clip-rule="evenodd" fill="rgb(0,0,0)" fill-rule="evenodd"><path d="m4 7.25c.41421 0 .75.33579.75.75v10c0 .4142-.33579.75-.75.75s-.75-.3358-.75-.75v-10c0-.41421.33579-.75.75-.75z"/><path d="m16 22.752c-1.7073 0-3.3876.426-4.8887 1.2392-1.5011.8133-2.7756 1.9883-3.70804 3.4184-.22622.347-.6909.4449-1.03788.2187-.34698-.2263-.44487-.6909-.21864-1.0379 1.06872-1.6392 2.5295-2.9859 4.25006-3.918 1.7205-.9322 3.6464-1.4204 5.6032-1.4204s3.8827.4882 5.6032 1.4204c1.7206.9321 3.1813 2.2788 4.2501 3.918.2262.347.1283.8116-.2187 1.0379-.347.2262-.8116.1283-1.0379-.2187-.9324-1.4301-2.2069-2.6051-3.708-3.4184-1.5011-.8132-3.1814-1.2392-4.8887-1.2392z"/><path d="m15.7628 3.28849c.154-.05132.3204-.05132.4744 0l12 4c.3062.10208.5128.38869.5128.71151s-.2066.60943-.5128.71151l-12 3.99999c-.154.0513-.3204.0513-.4744 0l-11.99997-3.99999c-.30626-.10208-.51283-.38869-.51283-.71151s.20657-.60943.51283-.71151zm-9.39109 4.71151 9.62829 3.2094 9.6283-3.2094-9.6283-3.20943z"/><path d="m11.344 9.72187c.3055.27973.3264.75413.0466 1.05963-.819.8944-1.3601 2.0078-1.55737 3.2044-.19726 1.1965-.04212 2.4247.44647 3.5346.4886 1.11 1.2896 2.0538 2.3053 2.7165 1.0157.6626 2.2023 1.015 3.415 1.015s2.3993-.3524 3.415-1.015c1.0157-.6627 1.8167-1.6065 2.3053-2.7165.4886-1.1099.6437-2.3381.4465-3.5346-.1973-1.1966-.7384-2.31-1.5574-3.2044-.2798-.3055-.2589-.7799.0466-1.05963s.7799-.25886 1.0596.04662c1.0156 1.10901 1.6866 2.48961 1.9312 3.97341s.0522 3.0066-.5537 4.383c-.6058 1.3763-1.599 2.5467-2.8585 3.3684-1.2595.8216-2.7308 1.2587-4.2346 1.2587s-2.9751-.4371-4.2346-1.2587c-1.2595-.8217-2.25267-1.9921-2.85855-3.3684-.60588-1.3764-.79824-2.8992-.55365-4.383.2446-1.4838.91559-2.8644 1.9312-3.97341.2797-.30548.7541-.32635 1.0596-.04662z"/></g></svg>