<svg id="Layer_1" viewBox="0 0 64 64" xmlns="http://www.w3.org/2000/svg" data-name="Layer 1"><g fill="rgb(0,0,0)"><path d="m55 2h-46c-3.86 0-7 3.14-7 7v46c0 3.86 3.14 7 7 7h46c3.86 0 7-3.14 7-7v-46c0-3.86-3.14-7-7-7zm5 53c0 2.76-2.24 5-5 5h-46c-2.76 0-5-2.24-5-5v-46c0-2.76 2.24-5 5-5h46c2.76 0 5 2.24 5 5z"/><path d="m52 17h-40c-1.65 0-3 1.35-3 3v24c0 1.65 1.35 3 3 3h40c1.65 0 3-1.35 3-3v-24c0-1.65-1.35-3-3-3zm-41 7h42v3h-15c-.38 0-.72.21-.89.55l-1.72 3.45h-7.76l-1.72-3.45c-.17-.34-.52-.55-.89-.55h-14.02zm1-5h40c.55 0 1 .45 1 1v2h-42v-2c0-.55.45-1 1-1zm40 26h-40c-.55 0-1-.45-1-1v-15h13.38l1.72 3.45c.17.34.52.55.89.55h9c.38 0 .72-.21.89-.55l1.72-3.45h14.38v15c0 .55-.45 1-1 1z"/></g></svg>