<svg width="46" height="46" viewBox="0 0 46 46" fill="none" xmlns="http://www.w3.org/2000/svg">
<rect x="0.5" y="0.5" width="45" height="45" rx="15.5" stroke="#030923" style="stroke:#030923;stroke:color(display-p3 0.0118 0.0353 0.1373);stroke-opacity:1;"/>
<path d="M23 24.25C23.6904 24.25 24.25 23.6904 24.25 23C24.25 22.3096 23.6904 21.75 23 21.75C22.3096 21.75 21.75 22.3096 21.75 23C21.75 23.6904 22.3096 24.25 23 24.25Z" fill="#030923" stroke="#030923" style="fill:#030923;fill:color(display-p3 0.0118 0.0353 0.1373);fill-opacity:1;stroke:#030923;stroke:color(display-p3 0.0118 0.0353 0.1373);stroke-opacity:1;" stroke-width="2" stroke-linecap="round" stroke-linejoin="round"/>
<path d="M23 15.5C23.6904 15.5 24.25 14.9404 24.25 14.25C24.25 13.5596 23.6904 13 23 13C22.3096 13 21.75 13.5596 21.75 14.25C21.75 14.9404 22.3096 15.5 23 15.5Z" fill="#030923" stroke="#030923" style="fill:#030923;fill:color(display-p3 0.0118 0.0353 0.1373);fill-opacity:1;stroke:#030923;stroke:color(display-p3 0.0118 0.0353 0.1373);stroke-opacity:1;" stroke-width="2" stroke-linecap="round" stroke-linejoin="round"/>
<path d="M23 33C23.6904 33 24.25 32.4404 24.25 31.75C24.25 31.0596 23.6904 30.5 23 30.5C22.3096 30.5 21.75 31.0596 21.75 31.75C21.75 32.4404 22.3096 33 23 33Z" fill="#030923" stroke="#030923" style="fill:#030923;fill:color(display-p3 0.0118 0.0353 0.1373);fill-opacity:1;stroke:#030923;stroke:color(display-p3 0.0118 0.0353 0.1373);stroke-opacity:1;" stroke-width="2" stroke-linecap="round" stroke-linejoin="round"/>
</svg>
