<svg id="a" height="512" viewBox="0 0 100 100" width="512" xmlns="http://www.w3.org/2000/svg"><path d="m79.18 15.38c-1.02-.61-2.39-.51-3.89.29-7.22 3.89-14.51 1-22.24-2.06-8.02-3.18-16.32-6.46-24.76-1.92-2.27 1.21-3.79 4.24-3.79 6.31v70.28c0 .83.67 1.5 1.5 1.5s1.5-.67 1.5-1.5v-38.28c.68-.03 1.43-.25 2.21-.67 7.22-3.89 14.51-1 22.24 2.06 5.19 2.05 10.48 4.15 15.86 4.15 2.94 0 5.91-.63 8.89-2.24 2.27-1.21 3.79-4.24 3.79-6.31v-28.99c0-1.59-.83-2.32-1.32-2.62zm-1.68 31.62c0 1.1-1.04 3.04-2.21 3.67-7.22 3.89-14.51 1-22.24-2.06-5.19-2.05-10.48-4.15-15.86-4.15-2.94 0-5.91.63-8.89 2.24-.37.2-.63.28-.79.31v-29.01c0-1.1 1.04-3.04 2.21-3.67 7.22-3.89 14.51-1 22.24 2.06 8.02 3.18 16.32 6.46 24.76 1.92.37-.2.63-.28.79-.31v28.99z"/></svg>